<svg xmlns="http://www.w3.org/2000/svg" viewBox="0 0 282.73 75.87"><defs><style>.cls-1{fill:#fff;}.cls-2{fill:#f6ab00;}.cls-3{fill:#f39800;}</style></defs><title>1</title><g id="图层_2" data-name="图层 2"><g id="图层_1-2" data-name="图层 1"><path class="cls-1" d="M127.21,51.15H84.16V31.88a1.08,1.08,0,0,1,1.1-1.06h42a1.08,1.08,0,0,1,1.1,1.06V50.1a1.08,1.08,0,0,1-1.1,1.05m-49.72-21V56.06h53.63a4.31,4.31,0,0,0,4.39-4.22V30.14a4.31,4.31,0,0,0-4.39-4.22H81.89A4.31,4.31,0,0,0,77.5,30.14Z"/><path class="cls-1" d="M95,20.9v14H87.55v5.05H98.77a3.58,3.58,0,0,0,3.58-3.58V20.9Z"/><path class="cls-1" d="M117.2,20.9v14h7.49v5.05H113.46a3.58,3.58,0,0,1-3.58-3.58V20.9Z"/><path class="cls-1" d="M120.17,47.78H87.55V42.73h37.13v.54a4.52,4.52,0,0,1-4.52,4.51"/><path class="cls-1" d="M134.16,64.86H73.56V59.81h65.12v.54a4.52,4.52,0,0,1-4.52,4.51"/><path class="cls-1" d="M60.61,75.76H0V70.71H65.12v.54a4.51,4.51,0,0,1-4.51,4.52"/><path class="cls-1" d="M57.7,56.94H2.9V51.89H62.22v.54a4.52,4.52,0,0,1-4.52,4.51"/><rect class="cls-1" x="28.44" y="36.86" width="8.24" height="36.48"/><path class="cls-1" d="M163.1,75.76V10.64h8.24V69a6.73,6.73,0,0,1-6.73,6.73Z"/><path class="cls-1" d="M246.85,75.87V19.29h8.24V70.49a5.39,5.39,0,0,1-5.39,5.39Z"/><path class="cls-1" d="M192.65,71.72,175.85,44.23h8.78L202.23,73H195a2.74,2.74,0,0,1-2.34-1.31"/><path class="cls-1" d="M273.95,71.63,260.63,37.45h8.23L282.73,73H276a2.2,2.2,0,0,1-2-1.4"/><path class="cls-1" d="M226.65,71.63,240,37.45h-8.23L217.87,73h6.73a2.2,2.2,0,0,0,2-1.4"/><path class="cls-1" d="M91.41,75.17,100,60.56H91.77l-8.94,15.2h6.73a2.28,2.28,0,0,0,1.85-.6"/><path class="cls-1" d="M205.12,38.88H142.8V33.83h66.84v.54a4.51,4.51,0,0,1-4.52,4.51"/><path class="cls-1" d="M199.63,22.92H168.86V17.87h35.28v.54a4.51,4.51,0,0,1-4.52,4.51"/><path class="cls-1" d="M134.16,22H73.56V17h65.12v.54A4.51,4.51,0,0,1,134.16,22"/><path class="cls-1" d="M122.43,51.89V69.74A1.33,1.33,0,0,1,121.05,71H112V73.7a2.13,2.13,0,0,0,2.2,2.06H127.5a2.65,2.65,0,0,0,2.61-2.56V51.89Z"/><path class="cls-1" d="M219,35.22c8-3.26,16.15-11.41,18.32-24.47h-8.76a24.93,24.93,0,0,1-8.79,15.33,1.93,1.93,0,0,0-.77,1.5Z"/><path class="cls-1" d="M232.19,15.8H269A10.21,10.21,0,0,1,279.26,26v9.25h-7V26a4.79,4.79,0,0,0-4.79-4.79h-37.1Z"/><path class="cls-1" d="M2.9,40H57.4A3.9,3.9,0,0,0,61,34.53L55.29,21.39H47.44l5.2,12a1.1,1.1,0,0,1-1,1.53H14.13a.79.79,0,0,1-.73-1.11l7.8-18H62.92a2.2,2.2,0,0,0,2.2-2.2V10.75H0V15.8H12.25L2.9,37.13Z"/><polygon class="cls-2" points="114.27 8.38 106.12 0 97.96 8.38 87.56 3.08 90.03 14.16 106.12 14.16 122.2 14.16 124.68 3.08 114.27 8.38"/><polygon class="cls-3" points="99.38 6.92 97.96 8.38 102.98 11.07 99.38 6.92"/><polygon class="cls-3" points="117.51 12.14 114.27 8.38 116.38 7.3 117.51 12.14"/></g></g></svg>